<svg width="148" height="148" viewBox="0 0 148 148" fill="none" xmlns="http://www.w3.org/2000/svg">
<rect x="0.322266" y="0.140625" width="146.77" height="146.912" fill="#F8F8F1" fill-opacity="0.95"/>
<path d="M27.177 30.375L25.377 34.29L23.577 30.375H22.077V40.875H23.577V33.675L24.972 36.645H25.782L27.177 33.675V40.875H28.677V30.375H27.177ZM34.9711 40.875C36.4711 40.875 37.6711 39.645 37.6711 38.16V33.075C37.6711 31.575 36.4711 30.375 34.9711 30.375H33.7711C32.2861 30.375 31.0711 31.575 31.0711 33.075V38.16C31.0711 39.645 32.2861 40.875 33.7711 40.875H34.9711ZM34.9711 39.36H33.7711C33.1111 39.36 32.5711 38.82 32.5711 38.16V33.075C32.5711 32.415 33.0961 31.875 33.7711 31.875H34.9711C35.6461 31.875 36.1711 32.4 36.1711 33.075V38.16C36.1711 38.82 35.6311 39.36 34.9711 39.36ZM45.1652 30.375V33.555L43.3802 38.505H43.3502L41.5652 33.555V30.375H40.0652V33.825L42.6152 40.875H44.1152L46.6652 33.825V30.375H45.1652ZM55.6594 31.875V30.375H49.0594V31.875V36.12V40.875H55.6594V39.375H50.5594V36.12H55.0594V34.62H50.5594V31.875H55.6594ZM28.677 85.975V85.075C28.677 83.575 27.477 82.375 25.977 82.375H23.577H22.077V92.875H23.577V88.675H25.122L27.027 92.875H28.677L26.712 88.57C27.852 88.255 28.677 87.22 28.677 85.975ZM27.177 85.975C27.177 86.65 26.652 87.175 25.977 87.175H23.577V83.875H25.977C26.652 83.875 27.177 84.4 27.177 85.075V85.975ZM34.9711 92.875C36.4711 92.875 37.6711 91.645 37.6711 90.16V85.075C37.6711 83.575 36.4711 82.375 34.9711 82.375H33.7711C32.2861 82.375 31.0711 83.575 31.0711 85.075V90.16C31.0711 91.645 32.2861 92.875 33.7711 92.875H34.9711ZM34.9711 91.36H33.7711C33.1111 91.36 32.5711 90.82 32.5711 90.16V85.075C32.5711 84.415 33.0961 83.875 33.7711 83.875H34.9711C35.6461 83.875 36.1711 84.4 36.1711 85.075V90.16C36.1711 90.82 35.6311 91.36 34.9711 91.36ZM46.6652 82.375H44.1152H40.0652V83.875H42.6152V92.875H44.1152V83.875H46.6652V82.375ZM53.1094 82.375H51.6094L49.0594 89.425V92.875H50.5594V90.445H54.1594V92.875H55.6594V89.425L53.1094 82.375ZM52.3444 84.745H52.3744L53.8894 88.945H50.8294L52.3444 84.745ZM64.6535 82.375H62.1035H58.0535V83.875H60.6035V92.875H62.1035V83.875H64.6535V82.375ZM73.6477 83.875V82.375H67.0477V83.875V88.12V92.875H73.6477V91.375H68.5477V88.12H73.0477V86.62H68.5477V83.875H73.6477Z" fill="#EC8480"/>
<path d="M27.177 56.925V57.075H28.677V56.925C28.677 55.425 27.477 54.225 25.977 54.225H24.777C23.292 54.225 22.077 55.425 22.077 56.925V59.16C22.077 60.645 23.292 61.875 24.777 61.875H25.977C27.477 61.875 28.677 60.645 28.677 59.16V59.01H27.177V59.16C27.177 59.82 26.637 60.36 25.977 60.36H24.777C24.117 60.36 23.577 59.82 23.577 59.16V56.925C23.577 56.265 24.102 55.725 24.777 55.725H25.977C26.652 55.725 27.177 56.25 27.177 56.925ZM34.8961 60.375V51.225H30.9211V52.725H33.3961V60.375H30.9211V61.875H33.3961H37.5211V60.375H34.8961ZM43.7402 51.375H42.0902V52.875H43.7402V51.375ZM43.7402 60.375V54.225H39.7652V55.725H42.2402V60.375H39.7652V61.875H42.2402H46.3652V60.375H43.7402ZM53.7094 56.925V57.075H55.2094V56.925C55.2094 55.425 54.0094 54.225 52.5094 54.225H51.3094C49.8244 54.225 48.6094 55.425 48.6094 56.925V59.16C48.6094 60.645 49.8244 61.875 51.3094 61.875H52.5094C54.0094 61.875 55.2094 60.645 55.2094 59.16V59.01H53.7094V59.16C53.7094 59.82 53.1694 60.36 52.5094 60.36H51.3094C50.6494 60.36 50.1094 59.82 50.1094 59.16V56.925C50.1094 56.265 50.6344 55.725 51.3094 55.725H52.5094C53.1844 55.725 53.7094 56.25 53.7094 56.925ZM64.0535 54.225H62.2835L60.3485 57.3H58.9535V51.225H57.4535V61.875H58.9535V58.8H60.3485L62.2835 61.875H64.0535L61.6535 58.05L64.0535 54.225ZM78.4418 57.12H76.4918V55.17H74.9918V57.12H73.0418V58.62H74.9918V60.57H76.4918V58.62H78.4418V57.12ZM92.5301 51.225V55.065L91.2851 54.225H90.1301C88.6451 54.225 87.4301 55.425 87.4301 56.925V59.175C87.4301 60.66 88.6451 61.875 90.1301 61.875H91.2851L92.5301 61.035V61.875H94.0301V51.225H92.5301ZM90.8201 60.375H90.1301C89.4701 60.375 88.9301 59.835 88.9301 59.175V56.925C88.9301 56.265 89.4701 55.725 90.1301 55.725H90.8201L92.5301 56.88V59.22L90.8201 60.375ZM100.174 54.225H99.5592L97.7742 55.425V54.225H96.2742V61.875H97.7742V57.24L100.024 55.725H100.174C100.834 55.725 101.374 56.265 101.374 56.925V57.525H102.874V56.925C102.874 55.425 101.659 54.225 100.174 54.225ZM110.218 54.225V55.065L108.973 54.225H107.818C106.333 54.225 105.118 55.425 105.118 56.925V59.175C105.118 60.66 106.333 61.875 107.818 61.875H108.973L110.218 61.035V61.875H111.718V54.225H110.218ZM108.508 60.375H107.818C107.158 60.375 106.618 59.835 106.618 59.175V56.925C106.618 56.265 107.158 55.725 107.818 55.725H108.508L110.218 56.88V59.22L108.508 60.375ZM119.062 54.225V55.065L117.817 54.225H116.662C115.177 54.225 113.962 55.425 113.962 56.925V59.175C113.962 60.66 115.177 61.875 116.662 61.875H117.817L119.062 61.035V62.31C119.062 62.97 118.522 63.51 117.862 63.51H116.662C116.002 63.51 115.462 62.97 115.462 62.31H113.962C113.962 63.795 115.177 65.025 116.662 65.025H117.862C119.362 65.025 120.562 63.795 120.562 62.31V54.225H119.062ZM117.352 60.375H116.662C116.002 60.375 115.462 59.835 115.462 59.175V56.925C115.462 56.265 116.002 55.725 116.662 55.725H117.352L119.062 56.88V59.22L117.352 60.375ZM22.077 111.355V111.655C22.077 112.93 23.157 113.875 24.612 113.875H26.127C27.642 113.875 28.677 113.02 28.677 111.76C28.677 108.7 23.682 109.465 23.682 108.25C23.682 107.935 23.952 107.725 24.582 107.725H26.022C26.547 107.725 26.922 108.04 26.922 108.46V108.595H28.422V108.46C28.422 107.2 27.372 106.225 26.022 106.225H24.582C23.157 106.225 22.182 107.035 22.182 108.25C22.182 111.16 27.177 110.065 27.177 111.76C27.177 112.135 26.832 112.375 26.127 112.375H24.612C23.967 112.375 23.577 112.075 23.577 111.655V111.355H22.077ZM34.8211 106.225H33.6661L32.4211 107.065V103.225H30.9211V113.875H32.4211V108.88L34.1311 107.725H34.8211C35.4811 107.725 36.0211 108.265 36.0211 108.925V113.875H37.5211V108.925C37.5211 107.425 36.3061 106.225 34.8211 106.225ZM43.7402 103.375H42.0902V104.875H43.7402V103.375ZM43.7402 112.375V106.225H39.7652V107.725H42.2402V112.375H39.7652V113.875H42.2402H46.3652V112.375H43.7402ZM53.7844 104.725H55.2094V103.225H53.7844C52.2844 103.225 51.0844 104.425 51.0844 105.925V106.675H48.6094V108.175H51.0844V113.875H52.5844V108.175H55.2094V106.675H52.5844V105.925C52.5844 105.25 53.1094 104.725 53.7844 104.725ZM64.0535 107.725V106.225H61.2785V104.275H59.7785V106.225H57.4535V107.725H59.7785V111.175C59.7785 112.675 60.9785 113.875 62.4785 113.875H64.0535V112.375H62.4785C61.8035 112.375 61.2785 111.85 61.2785 111.175V107.725H64.0535ZM78.4418 109.12H76.4918V107.17H74.9918V109.12H73.0418V110.62H74.9918V112.57H76.4918V110.62H78.4418V109.12ZM92.5301 103.225V107.065L91.2851 106.225H90.1301C88.6451 106.225 87.4301 107.425 87.4301 108.925V111.175C87.4301 112.66 88.6451 113.875 90.1301 113.875H91.2851L92.5301 113.035V113.875H94.0301V103.225H92.5301ZM90.8201 112.375H90.1301C89.4701 112.375 88.9301 111.835 88.9301 111.175V108.925C88.9301 108.265 89.4701 107.725 90.1301 107.725H90.8201L92.5301 108.88V111.22L90.8201 112.375ZM100.174 106.225H99.5592L97.7742 107.425V106.225H96.2742V113.875H97.7742V109.24L100.024 107.725H100.174C100.834 107.725 101.374 108.265 101.374 108.925V109.525H102.874V108.925C102.874 107.425 101.659 106.225 100.174 106.225ZM110.218 106.225V107.065L108.973 106.225H107.818C106.333 106.225 105.118 107.425 105.118 108.925V111.175C105.118 112.66 106.333 113.875 107.818 113.875H108.973L110.218 113.035V113.875H111.718V106.225H110.218ZM108.508 112.375H107.818C107.158 112.375 106.618 111.835 106.618 111.175V108.925C106.618 108.265 107.158 107.725 107.818 107.725H108.508L110.218 108.88V111.22L108.508 112.375ZM119.062 106.225V107.065L117.817 106.225H116.662C115.177 106.225 113.962 107.425 113.962 108.925V111.175C113.962 112.66 115.177 113.875 116.662 113.875H117.817L119.062 113.035V114.31C119.062 114.97 118.522 115.51 117.862 115.51H116.662C116.002 115.51 115.462 114.97 115.462 114.31H113.962C113.962 115.795 115.177 117.025 116.662 117.025H117.862C119.362 117.025 120.562 115.795 120.562 114.31V106.225H119.062ZM117.352 112.375H116.662C116.002 112.375 115.462 111.835 115.462 111.175V108.925C115.462 108.265 116.002 107.725 116.662 107.725H117.352L119.062 108.88V111.22L117.352 112.375Z" fill="black"/>
<path d="M3.96094 37.153V3.85352H37.2604" stroke="black" stroke-width="7.5"/>
<path d="M110.103 3.85351L143.402 3.85352L143.402 37.153" stroke="black" stroke-width="7.5"/>
<path d="M143.402 109.995L143.402 143.295L110.103 143.295" stroke="black" stroke-width="7.5"/>
<path d="M37.2604 143.295L3.96094 143.295L3.96094 109.995" stroke="black" stroke-width="7.5"/>
</svg>
