<svg width="148" height="148" viewBox="0 0 148 148" fill="none" xmlns="http://www.w3.org/2000/svg">
<rect x="3.90712" y="4.21767" width="139.552" height="139.552" fill="#F8F8F1" fill-opacity="0.8" stroke="black" stroke-width="7.46269"/>
<path d="M72.9824 51.5605C61.0704 51.5605 53.8203 61.7059 53.8203 72.4311H60.8991C61.1432 60.5924 69.5647 60.2257 74.2026 59.6155C78.8405 59.0052 87.8723 62.1785 87.8723 73.1631C87.8723 81.9508 79.2474 85.5309 74.9349 86.2226V94.1559C87.6282 94.1559 95.4394 81.5846 95.4394 72.4311C95.4394 63.2776 87.8723 51.5605 72.9824 51.5605Z" fill="black" stroke="black" stroke-width="4"/>
<path d="M69.4386 95.024C68.9142 94.9822 68.3471 94.9553 67.8556 94.9779C67.8549 94.9101 67.8543 94.8401 67.8537 94.7677C67.8452 93.7108 67.8509 92.2279 67.8623 90.7161C67.8737 89.2058 67.8908 87.672 67.905 86.5155C67.9094 86.1594 67.9136 85.8391 67.9172 85.5664H70.6032C70.5035 88.2619 70.4979 92.4932 70.5935 95.1415C70.2421 95.0991 69.8427 95.0563 69.4386 95.024Z" fill="#EC8480" stroke="#EC8480" stroke-width="2"/>
</svg>
