<svg width="148" height="148" viewBox="0 0 148 148" fill="none" xmlns="http://www.w3.org/2000/svg">
<rect x="4.40908" y="4.21767" width="139.552" height="139.552" fill="#F8F8F1" fill-opacity="0.8" stroke="black" stroke-width="7.46269"/>
<path d="M73.4843 51.5605C61.5724 51.5605 54.3223 61.7059 54.3223 72.4311H61.401C61.6451 60.5924 70.0666 60.2257 74.7045 59.6155C79.3425 59.0052 88.3742 62.1785 88.3742 73.1631C88.3742 81.9508 79.7493 85.5309 75.4369 86.2226V94.1559C88.1301 94.1559 95.9414 81.5846 95.9414 72.4311C95.9414 63.2776 88.3742 51.5605 73.4843 51.5605Z" stroke="black" stroke-width="4"/>
<path d="M69.9405 95.024C69.4161 94.9822 68.849 94.9553 68.3576 94.9779C68.3569 94.9101 68.3562 94.8401 68.3557 94.7677C68.3472 93.7108 68.3528 92.2279 68.3642 90.7161C68.3756 89.2058 68.3927 87.672 68.407 86.5155C68.4114 86.1594 68.4155 85.8391 68.4191 85.5664H71.1052C71.0055 88.2619 70.9999 92.4932 71.0954 95.1415C70.744 95.0991 70.3447 95.0563 69.9405 95.024Z" stroke="#EC8480" stroke-width="2"/>
</svg>
