<svg width="148" height="148" viewBox="0 0 148 148" fill="none" xmlns="http://www.w3.org/2000/svg">
<mask id="path-1-inside-1" fill="white">
<path fill-rule="evenodd" clip-rule="evenodd" d="M147.693 0.0273437L0.677734 0.0273438L0.677734 147.042H147.693V0.0273437ZM87.4611 78.838L90.4567 78.0566L88.8938 72.0655L85.8983 72.8469C82.6765 73.6874 78.1757 74.0655 73.3754 74.3542C72.5051 74.4066 71.623 74.456 70.7404 74.5054L70.7365 74.5057C66.9317 74.7188 63.1184 74.9324 60.2024 75.3828L57.1429 75.8554L58.0881 81.9744L61.1476 81.5018C63.7347 81.1022 67.1423 80.9103 70.9237 80.6974L70.9278 80.6971C71.8476 80.6453 72.7895 80.5923 73.7471 80.5347C78.4664 80.2508 83.5626 79.855 87.4611 78.838Z"/>
</mask>
<path fill-rule="evenodd" clip-rule="evenodd" d="M147.693 0.0273437L0.677734 0.0273438L0.677734 147.042H147.693V0.0273437ZM87.4611 78.838L90.4567 78.0566L88.8938 72.0655L85.8983 72.8469C82.6765 73.6874 78.1757 74.0655 73.3754 74.3542C72.5051 74.4066 71.623 74.456 70.7404 74.5054L70.7365 74.5057C66.9317 74.7188 63.1184 74.9324 60.2024 75.3828L57.1429 75.8554L58.0881 81.9744L61.1476 81.5018C63.7347 81.1022 67.1423 80.9103 70.9237 80.6974L70.9278 80.6971C71.8476 80.6453 72.7895 80.5923 73.7471 80.5347C78.4664 80.2508 83.5626 79.855 87.4611 78.838Z" fill="#E01010" fill-opacity="0.5"/>
<path d="M0.677734 0.0273438L0.677734 -2.97266H-2.32227V0.0273438L0.677734 0.0273438ZM147.693 0.0273437L150.693 0.0273437V-2.97266L147.693 -2.97266V0.0273437ZM0.677734 147.042H-2.32227L-2.32227 150.042H0.677734L0.677734 147.042ZM147.693 147.042V150.042H150.693V147.042H147.693ZM90.4567 78.0566L91.214 80.9594L94.1168 80.2021L93.3595 77.2993L90.4567 78.0566ZM87.4611 78.838L88.2184 81.7409L88.2184 81.7409L87.4611 78.838ZM88.8938 72.0655L91.7967 71.3082L91.0394 68.4053L88.1365 69.1626L88.8938 72.0655ZM85.8983 72.8469L86.6555 75.7498L86.6555 75.7498L85.8983 72.8469ZM73.3754 74.3542L73.1953 71.3597L73.1953 71.3597L73.3754 74.3542ZM70.7404 74.5054L70.5726 71.5101L70.5642 71.5106L70.7404 74.5054ZM70.7365 74.5057L70.9043 77.501L70.9126 77.5005L70.7365 74.5057ZM60.2024 75.3828L59.7445 72.418L59.7445 72.418L60.2024 75.3828ZM57.1429 75.8554L56.685 72.8905L53.7202 73.3485L54.1781 76.3133L57.1429 75.8554ZM58.0881 81.9744L55.1232 82.4324L55.5812 85.3972L58.546 84.9393L58.0881 81.9744ZM61.1476 81.5018L61.6055 84.4667L61.6055 84.4667L61.1476 81.5018ZM70.9237 80.6974L70.7591 77.7019L70.755 77.7021L70.9237 80.6974ZM70.9278 80.6971L71.0924 83.6926L71.0966 83.6924L70.9278 80.6971ZM73.7471 80.5347L73.567 77.5401L73.567 77.5401L73.7471 80.5347ZM0.677734 3.02734L147.693 3.02734V-2.97266L0.677734 -2.97266L0.677734 3.02734ZM3.67773 147.042L3.67773 0.0273437L-2.32227 0.0273438L-2.32227 147.042H3.67773ZM147.693 144.042H0.677734L0.677734 150.042H147.693V144.042ZM144.693 0.0273437V147.042H150.693V0.0273437L144.693 0.0273437ZM89.6994 75.1537L86.7039 75.9352L88.2184 81.7409L91.214 80.9594L89.6994 75.1537ZM85.9909 72.8227L87.5538 78.8138L93.3595 77.2993L91.7967 71.3082L85.9909 72.8227ZM86.6555 75.7498L89.6511 74.9683L88.1365 69.1626L85.141 69.9441L86.6555 75.7498ZM73.5555 77.3488C78.3151 77.0626 83.1053 76.6759 86.6555 75.7498L85.141 69.9441C82.2476 70.6989 78.0363 71.0685 73.1953 71.3597L73.5555 77.3488ZM70.9082 77.5008C71.7896 77.4514 72.678 77.4016 73.5555 77.3488L73.1953 71.3597C72.3322 71.4116 71.4563 71.4606 70.5726 71.5101L70.9082 77.5008ZM70.9126 77.5005L70.9165 77.5003L70.5642 71.5106L70.5603 71.5109L70.9126 77.5005ZM60.6604 78.3477C63.4001 77.9245 67.0479 77.717 70.9043 77.501L70.5687 71.5104C66.8155 71.7206 62.8368 71.9404 59.7445 72.418L60.6604 78.3477ZM57.6009 78.8202L60.6604 78.3477L59.7445 72.418L56.685 72.8905L57.6009 78.8202ZM61.0529 81.5165L60.1078 75.3974L54.1781 76.3133L55.1232 82.4324L61.0529 81.5165ZM60.6896 78.537L57.6301 79.0096L58.546 84.9393L61.6055 84.4667L60.6896 78.537ZM70.755 77.7021C67.0293 77.9119 63.4536 78.1101 60.6896 78.537L61.6055 84.4667C64.0158 84.0944 67.2552 83.9087 71.0924 83.6926L70.755 77.7021ZM70.7632 77.7016L70.7591 77.7019L71.0882 83.6928L71.0924 83.6926L70.7632 77.7016ZM73.567 77.5401C72.616 77.5973 71.6798 77.65 70.7591 77.7019L71.0966 83.6924C72.0155 83.6406 72.963 83.5873 73.9273 83.5293L73.567 77.5401ZM86.7039 75.9352C83.1328 76.8667 78.3242 77.254 73.567 77.5401L73.9272 83.5293C78.6086 83.2477 83.9924 82.8433 88.2184 81.7409L86.7039 75.9352Z" fill="black" mask="url(#path-1-inside-1)"/>
<rect x="4.40908" y="3.75869" width="139.552" height="139.552" stroke="black" stroke-width="7.46269"/>
</svg>
