<svg width="148" height="148" viewBox="0 0 148 148" fill="none" xmlns="http://www.w3.org/2000/svg">
<mask id="path-1-inside-1" fill="white">
<path fill-rule="evenodd" clip-rule="evenodd" d="M147.693 0.0175781L0.677734 0.0175781L0.677734 147.033H147.693V0.0175781ZM87.4611 78.8282L90.4567 78.0468L88.8938 72.0557L85.8983 72.8372C82.6765 73.6776 78.1757 74.0558 73.3754 74.3445C72.5051 74.3968 71.623 74.4462 70.7404 74.4957L70.7365 74.4959C66.9317 74.709 63.1184 74.9227 60.2024 75.3731L57.1429 75.8456L58.0881 81.9646L61.1476 81.4921C63.7347 81.0925 67.1423 80.9006 70.9237 80.6876L70.9278 80.6874C71.8476 80.6355 72.7895 80.5825 73.7471 80.5249C78.4664 80.2411 83.5626 79.8453 87.4611 78.8282Z"/>
</mask>
<path fill-rule="evenodd" clip-rule="evenodd" d="M147.693 0.0175781L0.677734 0.0175781L0.677734 147.033H147.693V0.0175781ZM87.4611 78.8282L90.4567 78.0468L88.8938 72.0557L85.8983 72.8372C82.6765 73.6776 78.1757 74.0558 73.3754 74.3445C72.5051 74.3968 71.623 74.4462 70.7404 74.4957L70.7365 74.4959C66.9317 74.709 63.1184 74.9227 60.2024 75.3731L57.1429 75.8456L58.0881 81.9646L61.1476 81.4921C63.7347 81.0925 67.1423 80.9006 70.9237 80.6876L70.9278 80.6874C71.8476 80.6355 72.7895 80.5825 73.7471 80.5249C78.4664 80.2411 83.5626 79.8453 87.4611 78.8282Z" fill="#E01010" fill-opacity="0.7"/>
<path d="M0.677734 0.0175781L0.677734 -2.98242H-2.32227V0.0175781L0.677734 0.0175781ZM147.693 0.0175781L150.693 0.0175781V-2.98242L147.693 -2.98242V0.0175781ZM0.677734 147.033H-2.32227L-2.32227 150.033H0.677734L0.677734 147.033ZM147.693 147.033V150.033H150.693V147.033H147.693ZM90.4567 78.0468L91.214 80.9496L94.1168 80.1924L93.3595 77.2895L90.4567 78.0468ZM87.4611 78.8282L88.2184 81.7311L88.2184 81.7311L87.4611 78.8282ZM88.8938 72.0557L91.7967 71.2984L91.0394 68.3956L88.1365 69.1529L88.8938 72.0557ZM85.8983 72.8372L86.6555 75.74L86.6555 75.74L85.8983 72.8372ZM73.3754 74.3445L73.1953 71.3499L73.1953 71.3499L73.3754 74.3445ZM70.7404 74.4957L70.5726 71.5004L70.5642 71.5009L70.7404 74.4957ZM70.7365 74.4959L70.9043 77.4912L70.9126 77.4907L70.7365 74.4959ZM60.2024 75.3731L59.7445 72.4082L59.7445 72.4082L60.2024 75.3731ZM57.1429 75.8456L56.685 72.8808L53.7202 73.3387L54.1781 76.3036L57.1429 75.8456ZM58.0881 81.9646L55.1232 82.4226L55.5812 85.3874L58.546 84.9295L58.0881 81.9646ZM61.1476 81.4921L61.6055 84.4569L61.6055 84.4569L61.1476 81.4921ZM70.9237 80.6876L70.7591 77.6921L70.755 77.6923L70.9237 80.6876ZM70.9278 80.6874L71.0924 83.6828L71.0966 83.6826L70.9278 80.6874ZM73.7471 80.5249L73.567 77.5303L73.567 77.5303L73.7471 80.5249ZM0.677734 3.01758L147.693 3.01758V-2.98242L0.677734 -2.98242L0.677734 3.01758ZM3.67773 147.033L3.67773 0.0175781L-2.32227 0.0175781L-2.32227 147.033H3.67773ZM147.693 144.033H0.677734L0.677734 150.033H147.693V144.033ZM144.693 0.0175781V147.033H150.693V0.0175781L144.693 0.0175781ZM89.6994 75.1439L86.7039 75.9254L88.2184 81.7311L91.214 80.9496L89.6994 75.1439ZM85.9909 72.813L87.5538 78.8041L93.3595 77.2895L91.7967 71.2984L85.9909 72.813ZM86.6555 75.74L89.6511 74.9586L88.1365 69.1529L85.141 69.9343L86.6555 75.74ZM73.5555 77.3391C78.3151 77.0528 83.1053 76.6661 86.6555 75.74L85.141 69.9343C82.2476 70.6891 78.0363 71.0587 73.1953 71.3499L73.5555 77.3391ZM70.9082 77.491C71.7896 77.4416 72.678 77.3919 73.5555 77.3391L73.1953 71.3499C72.3322 71.4018 71.4563 71.4509 70.5726 71.5004L70.9082 77.491ZM70.9126 77.4907L70.9165 77.4905L70.5642 71.5009L70.5603 71.5011L70.9126 77.4907ZM60.6604 78.3379C63.4001 77.9147 67.0479 77.7072 70.9043 77.4912L70.5687 71.5006C66.8155 71.7109 62.8368 71.9306 59.7445 72.4082L60.6604 78.3379ZM57.6009 78.8105L60.6604 78.3379L59.7445 72.4082L56.685 72.8808L57.6009 78.8105ZM61.0529 81.5067L60.1078 75.3877L54.1781 76.3036L55.1232 82.4226L61.0529 81.5067ZM60.6896 78.5272L57.6301 78.9998L58.546 84.9295L61.6055 84.4569L60.6896 78.5272ZM70.755 77.6923C67.0293 77.9022 63.4536 78.1003 60.6896 78.5272L61.6055 84.4569C64.0158 84.0846 67.2552 83.899 71.0924 83.6828L70.755 77.6923ZM70.7632 77.6919L70.7591 77.6921L71.0882 83.6831L71.0924 83.6828L70.7632 77.6919ZM73.567 77.5303C72.616 77.5875 71.6798 77.6402 70.7591 77.6921L71.0966 83.6826C72.0155 83.6308 72.963 83.5775 73.9273 83.5195L73.567 77.5303ZM86.7039 75.9254C83.1328 76.857 78.3242 77.2442 73.567 77.5303L73.9272 83.5195C78.6086 83.2379 83.9924 82.8335 88.2184 81.7311L86.7039 75.9254Z" fill="black" mask="url(#path-1-inside-1)"/>
<rect x="4.40908" y="3.74892" width="139.552" height="139.552" stroke="black" stroke-width="7.46269"/>
</svg>
